<svg width="24" height="24" viewBox="0 0 24 24" fill="none" xmlns="http://www.w3.org/2000/svg">
<path d="M17.9993 0.0049936L14.887 0C11.3905 0 9.13088 2.31828 9.13088 5.90643V8.62969H6.00164C5.73124 8.62969 5.51227 8.84891 5.51227 9.11932V13.065C5.51227 13.3354 5.73149 13.5544 6.00164 13.5544H9.13088V23.5106C9.13088 23.781 9.34985 24 9.62026 24H13.703C13.9734 24 14.1924 23.7808 14.1924 23.5106V13.5544H17.8512C18.1216 13.5544 18.3406 13.3354 18.3406 13.065L18.3421 9.11932C18.3421 8.98948 18.2904 8.86514 18.1988 8.77326C18.1071 8.68138 17.9823 8.62969 17.8525 8.62969H14.1924V6.32115C14.1924 5.21157 14.4568 4.64829 15.9022 4.64829L17.9988 4.64755C18.2689 4.64755 18.4879 4.42833 18.4879 4.15817V0.494367C18.4879 0.224462 18.2692 0.00549296 17.9993 0.0049936Z" fill="white"/>
</svg>
